<svg width="199" height="267" viewBox="0 0 199 267" fill="none" xmlns="http://www.w3.org/2000/svg">
<g filter="url(#filter0_ddddd_228_8)">
<path d="M70.8694 5.48504L74.1563 7.05429C74.972 7.44373 75.9198 7.44461 76.7363 7.05668L80.0812 5.46737C82.6307 4.25583 84.9124 3.33995 85.1516 3.4317C85.3909 3.52346 86.9627 5.42047 88.6439 7.64713L90.8405 10.556C91.385 11.277 92.2254 11.7143 93.1283 11.7463L96.8681 11.8789C100.485 12.007 102.115 12.1902 102.3 12.4896C102.445 12.7247 102.904 15.1138 103.319 17.7986L103.855 21.257C103.994 22.1564 104.534 22.944 105.322 23.3981L108.275 25.0981C110.586 26.4283 112.661 27.7394 112.887 28.0123C113.218 28.4106 112.979 29.4753 111.677 33.4117L110.501 36.9697C110.219 37.8216 110.334 38.7549 110.813 39.5136L112.801 42.6605C114.31 45.0507 115.549 47.1509 115.553 47.328C115.557 47.505 113.859 49.2556 111.778 51.2182L109.046 53.7963C108.382 54.4221 108.039 55.3157 108.114 56.2246L108.424 59.9855C108.677 63.0706 108.727 65.305 108.545 65.4811C108.377 65.6438 106.119 66.3878 103.527 67.1341C100.936 67.8807 98.6975 68.6192 98.5527 68.7755C98.4079 68.9318 97.4954 70.9716 96.5245 73.308C95.5536 75.6444 94.5694 77.7532 94.3369 77.9938C93.9933 78.3503 93.0088 78.2398 89.0435 77.399C86.3642 76.8312 84.0601 76.3666 83.9231 76.3666C83.7861 76.3666 81.9095 77.8194 79.7529 79.5951C77.5966 81.3708 75.6574 82.8236 75.4437 82.8236C75.2299 82.8236 73.2907 81.3708 71.1344 79.5951C68.9778 77.8194 67.1012 76.3666 66.9642 76.3666C66.8273 76.3666 64.5231 76.8312 61.8438 77.399C57.8785 78.2398 56.894 78.3503 56.5504 77.9938C56.3179 77.7532 55.3337 75.6444 54.3628 73.308C53.3919 70.9716 52.4794 68.9318 52.3346 68.7755C52.1898 68.6192 49.9513 67.8807 47.36 67.1341C44.7687 66.3878 42.5108 65.6438 42.3422 65.4811C42.1607 65.305 42.21 63.0706 42.4635 59.9855L42.773 56.2246C42.8478 55.3157 42.5051 54.4221 41.8418 53.7963L39.1089 51.2182C37.0287 49.2556 35.3302 47.5152 35.3343 47.3504C35.3387 47.1859 36.5771 45.085 38.0863 42.6816L40.079 39.5085C40.5548 38.7509 40.6676 37.8205 40.3867 36.9711L39.2092 33.4103C37.9079 29.475 37.6693 28.4106 38 28.0123C38.2263 27.7394 40.3018 26.4283 42.612 25.0981L45.5648 23.3981C46.3535 22.944 46.8935 22.1564 47.0327 21.257L47.568 17.7986C47.9833 15.1138 48.4424 12.7247 48.5875 12.4896C48.7727 12.1902 50.4019 12.007 54.0172 11.8789L57.7491 11.7465C58.6555 11.7144 59.4988 11.2738 60.0429 10.5482L61.7568 8.26258C64.7046 4.33127 65.5865 3.30018 66.0001 3.30018C66.1612 3.30018 68.3525 4.28335 70.8694 5.48504Z" fill="#F2B705"/>
<path fill-rule="evenodd" clip-rule="evenodd" d="M64.2492 0.313297C63.44 0.740821 62.2893 2.06213 59.0883 6.23881L58.3605 7.18844C57.8249 7.8873 57.0093 8.31558 56.13 8.35976L52.8491 8.5246C49.712 8.68195 47.85 8.93038 47.1697 9.28211C45.7797 10.0009 45.0545 11.8721 44.3296 16.6071L43.9421 19.1392C43.8038 20.0425 43.2615 20.8335 42.4688 21.2879L40.2974 22.533C33.4879 26.4371 33.4318 26.5723 35.7414 33.5697L36.7148 36.5191C36.9968 37.3734 36.8805 38.309 36.398 39.0683L34.9166 41.3997C32.0174 45.9628 31.8057 46.4624 32.0969 48.0484C32.294 49.1234 32.9503 49.9397 35.8767 52.7532L38.3878 55.1673C39.0394 55.7937 39.3739 56.6805 39.2982 57.5812L39.0243 60.8415C38.4377 67.8205 38.6658 68.141 45.6339 70.1315L48.5087 70.9526C49.3808 71.2016 50.0934 71.8319 50.4472 72.667L51.6624 75.5357C54.3693 81.9251 54.9035 82.2309 61.1396 80.9606C63.4509 80.4899 65.5899 80.1049 65.893 80.1049C66.1958 80.1049 68.0157 81.3939 69.9368 82.9694C75.1021 87.2052 75.7852 87.2052 80.9505 82.9694C82.8716 81.3939 84.6915 80.1049 84.9943 80.1049C85.2974 80.1049 87.4364 80.4899 89.7477 80.9606C95.9862 82.2313 96.5728 81.8948 99.2484 75.5116L100.436 72.6772C100.788 71.8371 101.503 71.2025 102.379 70.9523L105.25 70.1322C112.222 68.1407 112.45 67.8209 111.863 60.8415L111.589 57.5812C111.513 56.6805 111.848 55.7937 112.499 55.1673L115.011 52.7532C117.937 49.9397 118.593 49.1234 118.79 48.0484C119.082 46.4624 118.87 45.9628 115.971 41.3997L114.489 39.0683C114.007 38.309 113.891 37.3734 114.172 36.5191L115.146 33.5697C117.455 26.574 117.398 26.4361 110.6 22.5384L108.422 21.2898C107.638 20.8405 107.099 20.0618 106.954 19.1702L106.433 15.9808C105.63 11.0537 105.076 9.80072 103.405 9.12647C102.886 8.91746 100.399 8.62961 97.8784 8.48688L94.6747 8.30586C93.7993 8.2564 92.9893 7.82642 92.4579 7.12902L90.8865 5.06703C87.3219 0.389762 86.946 0.0696294 85.0364 0.0825434C83.796 0.0910395 82.5202 0.530797 79.4368 2.0132L76.7361 3.31138C75.9188 3.70426 74.9676 3.70633 74.1485 3.31701L71.4763 2.04684C67.212 0.0196722 65.5562 -0.377265 64.2492 0.313297ZM76.7363 7.05668C75.9198 7.44461 74.972 7.44373 74.1563 7.05429L70.8694 5.48504C68.3525 4.28335 66.1612 3.30018 66.0001 3.30018C65.5865 3.30018 64.7046 4.33127 61.7568 8.26258L60.0429 10.5482C59.4988 11.2738 58.6555 11.7144 57.7491 11.7465L54.0172 11.8789C50.4019 12.007 48.7727 12.1902 48.5875 12.4896C48.4424 12.7247 47.9833 15.1138 47.568 17.7986L47.0327 21.257C46.8935 22.1564 46.3535 22.944 45.5648 23.3981L42.612 25.0981C40.3018 26.4283 38.2263 27.7394 38 28.0123C37.6693 28.4106 37.9079 29.475 39.2092 33.4103L40.3867 36.9711C40.6676 37.8205 40.5548 38.7509 40.079 39.5085L38.0863 42.6816C36.5771 45.085 35.3387 47.1859 35.3343 47.3504C35.3302 47.5152 37.0287 49.2556 39.1089 51.2182L41.8418 53.7963C42.5051 54.4221 42.8478 55.3157 42.773 56.2246L42.4635 59.9855C42.21 63.0706 42.1607 65.305 42.3422 65.4811C42.5108 65.6438 44.7687 66.3878 47.36 67.1341C49.9513 67.8807 52.1898 68.6192 52.3346 68.7755C52.4794 68.9318 53.3919 70.9716 54.3628 73.308C55.3337 75.6444 56.3179 77.7532 56.5504 77.9938C56.894 78.3503 57.8785 78.2398 61.8438 77.399C64.5231 76.8312 66.8273 76.3666 66.9642 76.3666C67.1012 76.3666 68.9778 77.8194 71.1344 79.5951C73.2907 81.3708 75.2299 82.8236 75.4437 82.8236C75.6574 82.8236 77.5966 81.3708 79.7529 79.5951C81.9095 77.8194 83.7861 76.3666 83.9231 76.3666C84.0601 76.3666 86.3642 76.8312 89.0435 77.399C93.0088 78.2398 93.9933 78.3503 94.3369 77.9938C94.5694 77.7532 95.5536 75.6444 96.5245 73.308C97.4954 70.9716 98.4079 68.9318 98.5527 68.7755C98.6975 68.6192 100.936 67.8807 103.527 67.1341C106.119 66.3878 108.377 65.6438 108.545 65.4811C108.727 65.305 108.677 63.0706 108.424 59.9855L108.114 56.2246C108.039 55.3157 108.382 54.4221 109.046 53.7963L111.778 51.2182C113.859 49.2556 115.557 47.505 115.553 47.328C115.549 47.1509 114.31 45.0507 112.801 42.6605L110.813 39.5136C110.334 38.7549 110.219 37.8216 110.501 36.9697L111.677 33.4117C112.979 29.4753 113.218 28.4106 112.887 28.0123C112.661 27.7394 110.586 26.4283 108.275 25.0981L105.322 23.3981C104.534 22.944 103.994 22.1564 103.855 21.257L103.319 17.7986C102.904 15.1138 102.445 12.7247 102.3 12.4896C102.115 12.1902 100.485 12.007 96.8681 11.8789L93.1283 11.7463C92.2254 11.7143 91.385 11.277 90.8405 10.556L88.6439 7.64713C86.9627 5.42047 85.3909 3.52346 85.1516 3.4317C84.9124 3.33995 82.6307 4.25583 80.0812 5.46737L76.7363 7.05668Z" fill="#F2B705"/>
</g>
<path d="M72.0655 66.6364C72.0655 67.5881 71.8851 68.3977 71.5243 69.0653C71.1664 69.733 70.6777 70.2429 70.0584 70.5952C69.4419 70.9446 68.7488 71.1193 67.9789 71.1193C67.2033 71.1193 66.5073 70.9432 65.8908 70.5909C65.2743 70.2386 64.7871 69.7287 64.4292 69.0611C64.0712 68.3935 63.8922 67.5852 63.8922 66.6364C63.8922 65.6847 64.0712 64.875 64.4292 64.2074C64.7871 63.5398 65.2743 63.0312 65.8908 62.6818C66.5073 62.3295 67.2033 62.1534 67.9789 62.1534C68.7488 62.1534 69.4419 62.3295 70.0584 62.6818C70.6777 63.0312 71.1664 63.5398 71.5243 64.2074C71.8851 64.875 72.0655 65.6847 72.0655 66.6364ZM70.1948 66.6364C70.1948 66.0199 70.1025 65.5 69.9178 65.0767C69.736 64.6534 69.4789 64.3324 69.1465 64.1136C68.8141 63.8949 68.4249 63.7855 67.9789 63.7855C67.5328 63.7855 67.1436 63.8949 66.8113 64.1136C66.4789 64.3324 66.2203 64.6534 66.0357 65.0767C65.8539 65.5 65.763 66.0199 65.763 66.6364C65.763 67.2528 65.8539 67.7727 66.0357 68.196C66.2203 68.6193 66.4789 68.9403 66.8113 69.1591C67.1436 69.3778 67.5328 69.4872 67.9789 69.4872C68.4249 69.4872 68.8141 69.3778 69.1465 69.1591C69.4789 68.9403 69.736 68.6193 69.9178 68.196C70.1025 67.7727 70.1948 67.2528 70.1948 66.6364ZM73.4324 71V62.2727H79.2108V63.794H75.2775V65.8736H78.8272V67.3949H75.2775V71H73.4324ZM80.4519 71V62.2727H86.2303V63.794H82.2971V65.8736H85.8468V67.3949H82.2971V71H80.4519Z" fill="white"/>
<path d="M59.1905 55.358C57.3837 55.358 55.7729 55.0256 54.3581 54.3608C52.9519 53.696 51.8354 52.7798 51.0087 51.6122C50.182 50.4446 49.7516 49.1065 49.7175 47.598H55.0868C55.1465 48.6122 55.5726 49.4347 56.3652 50.0653C57.1578 50.696 58.0996 51.0114 59.1905 51.0114C60.0598 51.0114 60.8269 50.8196 61.4917 50.4361C62.165 50.044 62.6891 49.5028 63.0641 48.8125C63.4476 48.1136 63.6394 47.3125 63.6394 46.4091C63.6394 45.4886 63.4434 44.679 63.0513 43.9801C62.6678 43.2812 62.1351 42.7358 61.4533 42.3438C60.7715 41.9517 59.9917 41.7514 59.1138 41.7429C58.3468 41.7429 57.601 41.9006 56.8766 42.2159C56.1607 42.5312 55.6025 42.9616 55.2019 43.5071L50.28 42.625L51.5201 28.8182H67.5257V33.3438H56.084L55.4064 39.902H55.5598C56.0201 39.2543 56.7147 38.7173 57.6436 38.2912C58.5726 37.8651 59.6124 37.652 60.763 37.652C62.3397 37.652 63.7459 38.0227 64.9817 38.7642C66.2175 39.5057 67.1934 40.5241 67.9093 41.8196C68.6252 43.1065 68.9789 44.5895 68.9703 46.2685C68.9789 48.0327 68.5698 49.6009 67.7431 50.973C66.9249 52.3366 65.7786 53.4105 64.3042 54.1946C62.8382 54.9702 61.1337 55.358 59.1905 55.358ZM83.0968 55.5753C80.8979 55.5668 79.0059 55.0256 77.4206 53.9517C75.8439 52.8778 74.6294 51.3224 73.7772 49.2855C72.9334 47.2486 72.5158 44.7983 72.5243 41.9347C72.5243 39.0795 72.9462 36.6463 73.79 34.6349C74.6422 32.6236 75.8567 31.0937 77.4334 30.0455C79.0186 28.9886 80.9064 28.4602 83.0968 28.4602C85.2871 28.4602 87.1706 28.9886 88.7473 30.0455C90.3326 31.1023 91.5513 32.6364 92.4036 34.6477C93.2559 36.6506 93.6777 39.0795 93.6692 41.9347C93.6692 44.8068 93.2431 47.2614 92.3908 49.2983C91.5471 51.3352 90.3368 52.8906 88.7601 53.9645C87.1834 55.0384 85.2956 55.5753 83.0968 55.5753ZM83.0968 50.9858C84.5968 50.9858 85.7942 50.2315 86.6891 48.723C87.584 47.2145 88.0272 44.9517 88.0186 41.9347C88.0186 39.9489 87.8141 38.2955 87.405 36.9744C87.0044 35.6534 86.4334 34.6605 85.6919 33.9957C84.959 33.331 84.0939 32.9986 83.0968 32.9986C81.6053 32.9986 80.4121 33.7443 79.5172 35.2358C78.6223 36.7273 78.1706 38.9602 78.1621 41.9347C78.1621 43.946 78.3624 45.625 78.763 46.9716C79.1721 48.3097 79.7473 49.3153 80.4888 49.9886C81.2303 50.6534 82.0996 50.9858 83.0968 50.9858Z" fill="white"/>
<path fill-rule="evenodd" clip-rule="evenodd" d="M97.9309 56.5216C97.9309 56.4371 99.8706 53.0819 102.241 49.0656L106.194 42.369C106.416 41.9936 106.819 41.7633 107.255 41.7633C107.828 41.7633 107.943 41.8024 107.876 41.9746C107.788 42.198 100.09 55.2735 99.5253 56.1575C99.2231 56.6307 99.1403 56.6753 98.5627 56.6753C98.1928 56.6753 97.9309 56.6116 97.9309 56.5216ZM96.1301 44.9587C96.2149 43.2493 96.6307 42.4548 97.6495 42.0564C98.1847 41.8473 99.5822 41.8747 100.033 42.1035C100.585 42.3833 101.131 43.0546 101.304 43.6661C101.493 44.3338 101.492 46.9303 101.302 47.6006C101.107 48.2896 100.432 49.0252 99.8099 49.2263C99.0919 49.4587 97.7316 49.3329 97.2603 48.9905C96.2826 48.2804 96.0133 47.3194 96.1301 44.9587ZM99.9726 45.6454C99.9726 43.8838 99.9466 43.6796 99.691 43.4408C99.1744 42.9579 98.288 42.9571 97.8432 43.439C97.6369 43.6624 97.5743 44.007 97.5309 45.1559C97.4673 46.8425 97.5637 47.4785 97.9388 47.8463C98.301 48.2014 99.1957 48.2038 99.6402 47.8507C99.9611 47.596 99.9726 47.519 99.9726 45.6454ZM104.727 50.3257C105.092 49.651 105.715 49.2165 106.507 49.0843C107.059 48.9919 108.055 49.128 108.488 49.3554C108.638 49.4344 108.938 49.7263 109.155 50.0038C109.541 50.5001 109.548 50.544 109.586 52.6598C109.622 54.6867 109.605 54.843 109.301 55.3608C108.408 56.8815 105.847 56.9498 104.83 55.48C104.501 55.0037 104.476 54.8407 104.435 52.958C104.394 51.0593 104.41 50.9101 104.727 50.3257ZM108.296 51.9489C108.186 50.779 108.063 50.5351 107.488 50.3384C106.976 50.1633 106.973 50.1633 106.57 50.3228C105.931 50.5756 105.816 50.9571 105.816 52.8214C105.816 54.3783 105.848 54.6062 106.108 54.9307C106.48 55.395 107.429 55.4446 107.89 55.0238C108.255 54.6907 108.43 53.3607 108.296 51.9489Z" fill="white"/>
<defs>
<filter id="filter0_ddddd_228_8" x="-48" y="0" width="246.887" height="266.146" filterUnits="userSpaceOnUse" color-interpolation-filters="sRGB">
<feFlood flood-opacity="0" result="BackgroundImageFix"/>
<feColorMatrix in="SourceAlpha" type="matrix" values="0 0 0 0 0 0 0 0 0 0 0 0 0 0 0 0 0 0 127 0" result="hardAlpha"/>
<feOffset dy="3.43489"/>
<feGaussianBlur stdDeviation="1.37396"/>
<feColorMatrix type="matrix" values="0 0 0 0 0.94902 0 0 0 0 0.717647 0 0 0 0 0.0196078 0 0 0 0.0217013 0"/>
<feBlend mode="normal" in2="BackgroundImageFix" result="effect1_dropShadow_228_8"/>
<feColorMatrix in="SourceAlpha" type="matrix" values="0 0 0 0 0 0 0 0 0 0 0 0 0 0 0 0 0 0 127 0" result="hardAlpha"/>
<feOffset dy="8.6871"/>
<feGaussianBlur stdDeviation="3.47484"/>
<feColorMatrix type="matrix" values="0 0 0 0 0.94902 0 0 0 0 0.717647 0 0 0 0 0.0196078 0 0 0 0.0310596 0"/>
<feBlend mode="normal" in2="effect1_dropShadow_228_8" result="effect2_dropShadow_228_8"/>
<feColorMatrix in="SourceAlpha" type="matrix" values="0 0 0 0 0 0 0 0 0 0 0 0 0 0 0 0 0 0 127 0" result="hardAlpha"/>
<feOffset dy="17.7209"/>
<feGaussianBlur stdDeviation="7.08835"/>
<feColorMatrix type="matrix" values="0 0 0 0 0.94902 0 0 0 0 0.717647 0 0 0 0 0.0196078 0 0 0 0.0389404 0"/>
<feBlend mode="normal" in2="effect2_dropShadow_228_8" result="effect3_dropShadow_228_8"/>
<feColorMatrix in="SourceAlpha" type="matrix" values="0 0 0 0 0 0 0 0 0 0 0 0 0 0 0 0 0 0 127 0" result="hardAlpha"/>
<feOffset dy="36.5016"/>
<feGaussianBlur stdDeviation="14.6007"/>
<feColorMatrix type="matrix" values="0 0 0 0 0.94902 0 0 0 0 0.717647 0 0 0 0 0.0196078 0 0 0 0.0482987 0"/>
<feBlend mode="normal" in2="effect3_dropShadow_228_8" result="effect4_dropShadow_228_8"/>
<feColorMatrix in="SourceAlpha" type="matrix" values="0 0 0 0 0 0 0 0 0 0 0 0 0 0 0 0 0 0 127 0" result="hardAlpha"/>
<feOffset dy="100"/>
<feGaussianBlur stdDeviation="40"/>
<feColorMatrix type="matrix" values="0 0 0 0 0.94902 0 0 0 0 0.717647 0 0 0 0 0.0196078 0 0 0 0.07 0"/>
<feBlend mode="normal" in2="effect4_dropShadow_228_8" result="effect5_dropShadow_228_8"/>
<feBlend mode="normal" in="SourceGraphic" in2="effect5_dropShadow_228_8" result="shape"/>
</filter>
</defs>
</svg>
