<svg width="162" height="195" viewBox="0 0 162 195" fill="none" xmlns="http://www.w3.org/2000/svg">
<g clip-path="url(#clip0_17_242)">
<path d="M147.462 172.911C147.416 172.911 147.369 172.911 147.323 172.91L25.105 171.486C18.1584 171.396 12.5633 165.694 12.6122 158.764C3.9838 130.187 0.182049 107.684 0.286009 85.8058C0.394545 62.9704 4.91345 39.7416 14.5065 12.7083C14.6179 5.82504 20.2709 0.282623 27.1578 0.282623C27.2024 0.282623 27.2469 0.282901 27.2915 0.283316L149.51 1.71091C156.472 1.80056 162.075 7.52714 161.999 14.4764V14.4766L161.752 35.642L161.568 35.6441L160.109 160.441C160.02 167.346 154.359 172.911 147.462 172.911ZM27.1577 0.850223C20.5649 0.850223 15.1569 6.16745 15.0743 12.7628L15.0737 12.8097L15.0579 12.8539C-3.26147 64.4566 -3.75586 102.607 13.169 158.641L13.1815 158.683L13.1811 158.726C13.1118 165.363 18.4639 170.832 25.112 170.918L147.329 172.343C147.373 172.343 147.418 172.344 147.462 172.344C154.049 172.344 159.455 167.028 159.54 160.434L160.888 45.2566L160.894 44.6894L161.05 31.5197L161.231 31.5182L161.431 14.47C161.503 7.83339 156.152 2.36414 149.503 2.2785L27.2852 0.850916C27.243 0.850501 27.1997 0.850223 27.1577 0.850223Z" fill="#F2F2F2"/>
<path d="M136.604 121.772L136.596 122.34H66.783V121.772H136.604Z" fill="#F2F2F2"/>
<path d="M136.743 109.711L136.738 110.279H66.783V109.711H136.743Z" fill="#F2F2F2"/>
<path d="M136.886 97.6495L136.88 98.2171H66.783V97.6495H136.886Z" fill="#F2F2F2"/>
<path d="M136.448 134.941L136.442 135.508H65.2251V75.9388L65.7936 75.9444V111.593C65.7936 115.242 66.6322 118.696 68.1273 121.772C68.2211 121.963 68.3149 122.153 68.4144 122.34C72.3087 129.827 80.1484 134.941 89.182 134.941H136.448Z" fill="#F2F2F2"/>
<path d="M37.687 164.555C30.8672 164.468 25.4052 158.886 25.4771 152.076C9.23481 98.3028 8.21762 60.0625 27.3685 6.11279C27.4068 3.96576 28.0125 1.86703 29.1242 0.0288738L26.7192 0.000700972C19.8992 -0.0711004 14.3079 5.38218 14.2202 12.191C-4.93075 66.1409 -3.91352 104.381 12.3288 158.155C12.2567 164.964 17.7189 170.546 24.5387 170.633L146.757 172.06C151.176 172.096 155.276 169.766 157.5 165.953L37.687 164.555Z" fill="#F2F2F2"/>
<path d="M55.872 100.249C56.0669 101.471 55.0694 102.61 53.8308 102.575L49.7201 111.825L46.8779 111.318L51.8407 100.368C51.9218 99.4559 52.6158 98.6832 53.5628 98.5422C54.6725 98.3769 55.7064 99.1412 55.872 100.249Z" fill="#FFB6B6"/>
<path d="M33.6242 128.667L33.6242 128.667C34.7973 129.879 36.6977 130.009 38.0257 128.969L47.7515 121.352L52.5702 106.391L49.0668 104.773L42.4847 117.88L34.1144 123.68C32.4457 124.836 32.2124 127.21 33.6242 128.667V128.667Z" fill="#6C63FF"/>
<path d="M35.7397 123.472C35.4867 123.299 35.2166 123.146 34.9381 123.015C34.9438 122.942 34.9466 122.865 34.9466 122.791C34.9608 122.045 34.813 121.298 34.5117 120.615C34.5515 121.216 34.3667 121.829 34.0029 122.309C33.9403 122.394 33.8721 122.473 33.7982 122.55C33.7783 122.57 33.7584 122.59 33.7385 122.607C33.3377 122.516 32.9227 122.473 32.5105 122.479C32.0529 122.488 31.5981 122.55 31.1461 122.638C30.5805 122.746 30.0176 122.896 29.4548 123.021C29.4207 123.03 29.3894 123.035 29.3553 123.044C29.0967 122.343 28.6902 121.701 28.1615 121.174C28.4144 121.719 28.4656 122.357 28.3008 122.936C28.2723 123.038 28.2382 123.138 28.1956 123.234C27.5816 123.296 26.9676 123.279 26.3792 123.109C26.1291 123.038 25.8931 122.942 25.6629 122.828C24.8499 122.431 24.1165 121.841 23.278 121.486C22.826 121.293 22.3485 121.174 21.8596 121.125C21.4502 118.784 21.5639 116.707 22.8203 115.205C22.8203 111.78 25.6032 109.001 29.0341 109.001L31.8823 109.989L34.759 110.988C36.112 114.592 38.2638 117.765 35.7397 123.472Z" fill="black"/>
<path d="M40.3252 188.362L42.2735 189.285L46.8439 182.054L43.9684 180.692L40.3252 188.362Z" fill="#FFB6B6"/>
<path d="M45.0092 193.557L42.9288 189.959L43.59 188.567L42.9019 188.289L40.7672 187.431L40.2444 187.22L37.4985 191.942L38.9606 192.633L39.8755 191.379L39.8874 193.073L43.761 194.907C44.2424 195.135 44.8179 194.929 45.0452 194.45C45.1808 194.164 45.1674 193.831 45.0092 193.557Z" fill="black"/>
<path d="M69.0973 160.822L70.6513 159.329L65.4968 152.501L63.2031 154.704L69.0973 160.822Z" fill="#FFB6B6"/>
<path d="M75.622 158.288L71.5149 158.956L70.4452 157.846L69.9412 158.39L68.3822 160.079L67.999 160.493L71.4496 164.729L72.6147 163.608L71.7643 162.31L73.3549 162.899L76.445 159.932C76.8287 159.563 76.8393 158.952 76.4712 158.57C76.2519 158.343 75.9346 158.237 75.622 158.288Z" fill="black"/>
<path d="M36.1801 148.45L28.5053 146.747L28.5567 149.078C28.5567 149.078 20.5462 155.261 27.9368 161.221C35.3273 167.18 47.8345 167.748 47.8345 167.748L42.1494 184.208L44.992 185.344L56.1838 170.084C57.6908 167.349 57.2648 163.901 55.0198 161.728C54.5855 161.307 54.0881 160.937 53.5196 160.653C50.1085 158.95 41.0124 155.545 41.0124 155.545L36.4644 151.004L36.1801 148.45Z" fill="black"/>
<path d="M35.896 152.707L51.6597 142.691C53.4285 141.567 55.7322 141.767 57.2811 143.178L69.1537 156.112L66.0269 158.666L53.804 150.152C53.804 150.152 46.6976 158.099 44.7079 158.099C42.7181 158.099 35.896 152.707 35.896 152.707H35.896Z" fill="black"/>
<path d="M27.3684 153.516C27.3684 153.516 22.527 150.776 24.8056 148.456C27.0841 146.137 27.3684 138.803 27.3684 138.803L23.6731 127.69L26.5156 125.703L27.3684 122.34L32.485 122.056V124.568L37.6104 130.234C39.3522 132.159 39.8783 134.891 38.9758 137.324L37.6015 141.028C37.6015 141.028 41.5811 151.529 38.17 152.948C34.759 154.367 27.3684 153.516 27.3684 153.516Z" fill="#6C63FF"/>
<path d="M52.973 112.868L39.5287 100.889C37.4979 99.0911 37.3115 95.99 39.1122 93.9625C40.9129 91.935 44.0191 91.7489 46.0498 93.5467L46.0729 93.5674L59.5173 105.546C61.5366 107.357 61.7034 110.459 59.8899 112.475C58.0845 114.482 54.9947 114.657 52.973 112.868H52.973Z" fill="#F2F2F2"/>
<path d="M31.1329 121.116C33.9554 121.116 36.2435 118.832 36.2435 116.014C36.2435 113.196 33.9554 110.911 31.1329 110.911C28.3103 110.911 26.0222 113.196 26.0222 116.014C26.0222 118.832 28.3103 121.116 31.1329 121.116Z" fill="#FFB6B6"/>
<path d="M33.7953 114.961C33.7583 114.368 33.6133 113.781 33.3746 113.236C33.4144 113.837 33.2296 114.45 32.8658 114.93C32.8572 114.941 32.8487 114.95 32.843 114.961C31.9035 115.417 30.3196 115.159 28.7896 114.961V109.285H31.9163C34.9863 108.252 37.5133 110.5 37.6014 114.961C36.1286 115.228 34.748 115.373 33.7953 114.961Z" fill="black"/>
<path d="M31.1461 122.638C30.5804 122.746 30.0176 122.896 29.4548 123.021C29.4207 123.03 29.3894 123.035 29.3553 123.044C29.0966 122.343 28.6901 121.701 28.1614 121.174C28.4144 121.719 28.4656 122.357 28.3007 122.936C28.2723 123.038 28.2382 123.138 28.1955 123.234C27.5816 123.296 26.9676 123.279 26.3792 123.109C26.129 123.038 25.8931 122.942 25.6628 122.828V110.704H31.6322C29.3155 114.643 28.9858 118.617 31.1461 122.638Z" fill="black"/>
<path d="M30.0182 108.449C29.9092 108.108 29.4932 107.945 29.1389 108C28.7846 108.055 28.4794 108.271 28.1888 108.481C28.4718 108.173 28.3278 107.631 27.9814 107.396C27.635 107.162 27.172 107.178 26.7721 107.301C26.3723 107.424 26.0081 107.64 25.6175 107.79C25.227 107.94 24.7817 108.019 24.3949 107.86C24.5454 108.333 24.8366 108.76 25.2219 109.074C24.7661 108.994 24.2723 109.23 24.0484 109.634C23.8244 110.039 23.8868 110.582 24.1965 110.925C24.552 111.319 25.1533 111.411 25.6697 111.287C26.1861 111.164 26.6381 110.86 27.0735 110.556C27.5088 110.253 27.9509 109.938 28.4604 109.789L26.7857 110.841C27.641 110.485 28.4708 110.068 29.2667 109.594C29.4795 109.468 29.6943 109.333 29.8498 109.141C30.0053 108.948 30.0936 108.684 30.0182 108.449Z" fill="black"/>
<path d="M22.126 159.431C22.0875 158.17 23.2172 157.276 24.3722 157.045C25.8398 156.752 27.3379 157.507 28.5814 158.194C30.8035 159.421 33.3816 158.204 35.7559 159.693C39.2606 161.892 39.9846 158.599 39.7638 154.711C39.6011 151.843 40.2967 149.027 40.4449 146.205C40.5875 143.489 41.3285 140.729 43.6353 139.041C44.6038 138.333 45.8101 137.913 47.0126 138.162C48.2969 138.427 49.3229 139.349 50.5604 139.75C52.8634 140.497 55.2855 139.489 57.0125 137.953C59.0214 136.166 60.0021 133.653 60.6924 131.119C61.4082 128.491 61.8453 125.739 63.1576 123.318C64.2774 121.252 66.0364 119.346 68.4607 118.952C70.8361 118.566 73.112 119.728 75.1621 120.77C77.2721 121.841 79.4534 123.002 81.8709 123.102C87.0514 123.316 91.0531 118.916 93.2982 114.732C95.8607 109.956 97.3465 104.161 101.899 100.785C103.856 99.3335 106.339 98.3204 108.811 98.727C111.31 99.138 113.135 100.947 114.794 102.716C116.494 104.527 118.182 106.312 120.485 107.355C122.745 108.379 125.269 108.763 127.731 108.438C128.92 108.282 130.058 107.956 131.158 107.482C131.66 107.265 131.226 106.532 130.727 106.747C128.315 107.787 125.569 107.968 123.024 107.342C120.467 106.712 118.429 105.284 116.623 103.415C114.97 101.703 113.416 99.7545 111.253 98.6546C109.066 97.542 106.558 97.5703 104.3 98.468C102.011 99.3782 100.028 100.988 98.5238 102.924C96.7769 105.173 95.6153 107.808 94.4475 110.384C92.3369 115.04 89.6311 120.538 84.2314 121.985C79.1187 123.355 75.3359 118.839 70.5668 118.122C68.2222 117.769 66.0034 118.58 64.3431 120.252C62.6243 121.983 61.6307 124.272 60.9742 126.584C60.1699 129.418 59.7558 132.453 58.2789 135.048C57.1115 137.099 54.949 139.001 52.4919 139.143C51.0843 139.225 50.0064 138.576 48.8033 137.95C47.7187 137.385 46.5862 137.094 45.3672 137.332C43.0839 137.777 41.31 139.791 40.4381 141.845C38.2874 146.91 41.249 153.419 37.0388 157.75C36.2693 158.542 35.2823 159.137 34.1679 159.259C32.6749 159.421 31.2789 158.727 30.0133 158.023C27.8273 156.807 25.0594 155.181 22.6634 156.869C21.8132 157.468 21.2409 158.371 21.2733 159.431C21.29 159.977 22.1428 159.98 22.126 159.431H22.126Z" fill="#3F3D56"/>
<path d="M107.244 100.487C108.656 100.487 109.802 99.3439 109.802 97.9333C109.802 96.5226 108.656 95.3791 107.244 95.3791C105.831 95.3791 104.685 96.5226 104.685 97.9333C104.685 99.3439 105.831 100.487 107.244 100.487Z" fill="#6C63FF"/>
<path d="M83.3661 124.61C84.779 124.61 85.9244 123.467 85.9244 122.056C85.9244 120.646 84.779 119.502 83.3661 119.502C81.9532 119.502 80.8079 120.646 80.8079 122.056C80.8079 123.467 81.9532 124.61 83.3661 124.61Z" fill="#6C63FF"/>
<path d="M68.7788 44.8364C70.3477 41.5857 74.4179 39.7753 77.8877 40.7848C79.8424 41.3535 81.4818 42.6602 83.2791 43.6151C85.0764 44.57 87.3061 45.163 89.114 44.2284C92.2216 42.6218 92.0321 37.8251 94.7351 35.6059C96.5341 34.1288 99.174 34.1979 101.398 34.8904C103.621 35.5829 105.655 36.8054 107.893 37.4499C112.057 38.6492 116.793 37.6406 120.105 34.849C120.138 34.8211 120.171 34.793 120.203 34.7647C121.843 33.3224 124.413 34.511 124.353 36.692L123.933 51.9019H69.0723L68.7788 44.8364Z" fill="#F2F2F2"/>
<path d="M116.926 42.0955C117.107 42.0223 117.107 41.7694 116.926 41.6962C115.665 41.1854 114.252 40.4582 113.173 39.6672C113 39.5406 112.769 39.7152 112.842 39.9164L113.457 41.612H102.944V42.1796H113.457L112.842 43.8757C112.769 44.077 113 44.2516 113.173 44.1249C114.252 43.3339 115.665 42.6067 116.926 42.0955H116.926Z" fill="#3F3D56"/>
<path d="M93.2747 39.3618C93.3741 39.1942 93.2207 38.993 93.0325 39.044C91.7189 39.3999 90.1538 39.675 88.8151 39.6979C88.6008 39.7016 88.5228 39.9801 88.7029 40.0962L90.2201 41.0743L81.8533 47.4293L82.1975 47.881L90.5644 41.526L91.1039 43.2474C91.1679 43.4517 91.4576 43.451 91.5183 43.2457C91.8977 41.9637 92.5808 40.531 93.2747 39.3618L93.2747 39.3618Z" fill="#3F3D56"/>
<path d="M122.043 38.5569C124.734 38.5569 126.916 36.3787 126.916 33.6918C126.916 31.0049 124.734 28.8267 122.043 28.8267C119.352 28.8267 117.17 31.0049 117.17 33.6918C117.17 36.3787 119.352 38.5569 122.043 38.5569Z" fill="#6C63FF"/>
<path opacity="0.7" d="M98.1656 38.5569C100.857 38.5569 103.039 36.3787 103.039 33.6918C103.039 31.0049 100.857 28.8267 98.1656 28.8267C95.4744 28.8267 93.2927 31.0049 93.2927 33.6918C93.2927 36.3787 95.4744 38.5569 98.1656 38.5569Z" fill="#6C63FF"/>
<path opacity="0.25" d="M76.5624 43.0978C79.2536 43.0978 81.4353 40.9196 81.4353 38.2326C81.4353 35.5457 79.2536 33.3675 76.5624 33.3675C73.8711 33.3675 71.6895 35.5457 71.6895 38.2326C71.6895 40.9196 73.8711 43.0978 76.5624 43.0978Z" fill="#6C63FF"/>
<path d="M135.676 61.606L60.0669 61.0649C57.6366 61.0475 55.6469 63.0058 55.6295 65.4322C55.6121 67.8586 57.5734 69.8451 60.0037 69.8625L135.613 70.4035C138.044 70.4209 140.033 68.4627 140.051 66.0363C140.068 63.6099 138.107 61.6234 135.676 61.606Z" fill="#F2F2F2"/>
<path d="M48.7715 66.532C49.8704 66.532 50.7613 65.6426 50.7613 64.5454C50.7613 63.4482 49.8704 62.5588 48.7715 62.5588C47.6726 62.5588 46.7817 63.4482 46.7817 64.5454C46.7817 65.6426 47.6726 66.532 48.7715 66.532Z" fill="#F2F2F2"/>
<path d="M135.676 12.7924L60.0669 12.2513C57.6366 12.2339 55.6469 14.1922 55.6295 16.6186C55.6121 19.045 57.5734 21.0315 60.0037 21.0489L135.613 21.5899C138.044 21.6073 140.033 19.6491 140.051 17.2227C140.068 14.7963 138.107 12.8098 135.676 12.7924Z" fill="#F2F2F2"/>
<path d="M48.7715 17.7184C49.8704 17.7184 50.7613 16.829 50.7613 15.7318C50.7613 14.6346 49.8704 13.7452 48.7715 13.7452C47.6726 13.7452 46.7817 14.6346 46.7817 15.7318C46.7817 16.829 47.6726 17.7184 48.7715 17.7184Z" fill="#F2F2F2"/>
<path d="M40.9649 174.722H28.5816C27.5407 174.722 26.6938 173.877 26.6938 172.837V160.474C26.6938 159.434 27.5407 158.589 28.5816 158.589H40.9649C42.0058 158.589 42.8526 159.434 42.8526 160.474V172.837C42.8526 173.877 42.0058 174.722 40.9649 174.722Z" fill="white"/>
<path d="M40.9649 174.722H28.5816C27.5407 174.722 26.6938 173.877 26.6938 172.837V160.474C26.6938 159.434 27.5407 158.589 28.5816 158.589H40.9649C42.0058 158.589 42.8526 159.434 42.8526 160.474V172.837C42.8526 173.877 42.0058 174.722 40.9649 174.722ZM28.5816 158.891C27.7058 158.891 26.9959 159.599 26.9959 160.474V172.837C26.9959 173.712 27.7058 174.421 28.5816 174.421H37.4068C40.2477 174.421 42.5506 172.121 42.5506 169.285V160.474C42.5506 159.599 41.8407 158.891 40.9649 158.891H28.5816Z" fill="#E6E6E6"/>
<path d="M131.821 162.187C132.408 162.224 132.733 161.496 132.289 161.071L132.244 160.896C132.25 160.882 132.256 160.868 132.262 160.854C132.856 159.44 134.869 159.45 135.457 160.865C135.98 162.122 136.645 163.381 136.809 164.71C136.883 165.296 136.85 165.894 136.719 166.469C137.944 163.799 138.588 160.882 138.588 157.95C138.588 157.213 138.548 156.476 138.465 155.741C138.397 155.14 138.304 154.542 138.183 153.95C137.527 150.749 136.108 147.701 134.061 145.155C133.077 144.618 132.256 143.778 131.76 142.772C131.582 142.409 131.443 142.019 131.377 141.621C131.489 141.636 131.799 139.933 131.715 139.828C131.871 139.592 132.15 139.474 132.32 139.244C133.168 138.096 134.336 138.296 134.946 139.856C136.248 140.512 136.261 141.601 135.462 142.647C134.953 143.313 134.883 144.215 134.437 144.928C134.483 144.986 134.531 145.043 134.577 145.102C135.418 146.18 136.146 147.338 136.76 148.555C136.587 147.203 136.843 145.573 137.279 144.523C137.776 143.326 138.708 142.318 139.528 141.283C140.513 140.04 142.533 140.583 142.707 142.158C142.709 142.173 142.71 142.189 142.712 142.204C142.59 142.272 142.471 142.345 142.354 142.422C141.689 142.861 141.919 143.891 142.707 144.012L142.725 144.015C142.681 144.453 142.605 144.887 142.495 145.315C143.547 149.377 141.276 150.857 138.032 150.924C137.96 150.96 137.891 150.997 137.819 151.032C138.148 151.956 138.41 152.903 138.605 153.864C138.779 154.712 138.9 155.57 138.968 156.432C139.053 157.519 139.045 158.611 138.954 159.696L138.959 159.658C139.192 158.463 139.842 157.347 140.786 156.573C142.192 155.42 144.178 154.995 145.695 154.069C146.425 153.623 147.36 154.199 147.233 155.044L147.226 155.085C147.001 155.176 146.78 155.283 146.567 155.402C146.446 155.47 146.326 155.543 146.21 155.62C145.545 156.059 145.774 157.089 146.562 157.21L146.58 157.213C146.593 157.215 146.604 157.216 146.617 157.218C146.23 158.137 145.69 158.989 145.014 159.724C144.356 163.271 141.53 163.607 138.508 162.574H138.506C138.175 164.011 137.692 165.416 137.072 166.754H131.95C131.931 166.697 131.915 166.638 131.898 166.581C132.372 166.611 132.849 166.583 133.315 166.497C132.935 166.031 132.555 165.562 132.175 165.097C132.166 165.087 132.159 165.078 132.151 165.069C131.959 164.831 131.764 164.594 131.571 164.356L131.571 164.356C131.559 163.624 131.647 162.895 131.821 162.188L131.821 162.187Z" fill="#F2F2F2"/>
<path d="M29.2461 160.502C28.2209 159.807 28.0729 158.301 28.9469 157.424L25.0112 148.099L27.3271 146.377L31.9204 157.488C32.5304 158.171 32.619 159.205 32.0734 159.991C31.434 160.911 30.1682 161.14 29.2461 160.502H29.2461Z" fill="#FFB6B6"/>
<path d="M26.3486 126.56H26.3486C24.6667 126.42 23.1509 127.571 22.838 129.227L20.5461 141.355L27.6525 155.828L31.3478 154.126L26.7997 140.503L29.2708 130.635C29.7634 128.667 28.3727 126.728 26.3486 126.559V126.56Z" fill="#6C63FF"/>
<path d="M29.6349 163.163C29.3998 163.163 29.2085 163.354 29.2085 163.589V163.872C29.2085 164.107 29.3998 164.298 29.6349 164.298H39.5838C39.8189 164.298 40.0101 164.107 40.0101 163.872V163.589C40.0101 163.354 39.8189 163.163 39.5838 163.163H29.6349Z" fill="#E6E6E6"/>
<path d="M29.6349 166.285C29.3998 166.285 29.2085 166.476 29.2085 166.71V166.994C29.2085 167.229 29.3998 167.42 29.6349 167.42H39.5838C39.8189 167.42 40.0101 167.229 40.0101 166.994V166.71C40.0101 166.476 39.8189 166.285 39.5838 166.285H29.6349Z" fill="#E6E6E6"/>
<path d="M29.6349 169.406C29.3998 169.406 29.2085 169.597 29.2085 169.832V170.116C29.2085 170.351 29.3998 170.542 29.6349 170.542H39.5838C39.8189 170.542 40.0101 170.351 40.0101 170.116V169.832C40.0101 169.597 39.8189 169.406 39.5838 169.406H29.6349Z" fill="#E6E6E6"/>
</g>
<defs>
<clipPath id="clip0_17_242">
<rect width="162" height="195" fill="white"/>
</clipPath>
</defs>
</svg>
