<svg width="47" height="48" viewBox="0 0 47 48" fill="none" xmlns="http://www.w3.org/2000/svg">
<path d="M5.62631 10.0812L2.1065 13.0165L2.1065 45L5.70093 43.5693C5.70093 43.5693 4.5542 11.6978 5.62631 10.0812Z" fill="#5C2AFF"/>
<path d="M24.6316 43.5693L44.0415 45C44.0415 45 46.1981 14.2655 44.0415 12.0173C43.2934 11.2375 38.6239 10.5778 32.7835 10.1114C27.8361 9.71633 22.0485 9.45988 17.0927 9.38644C11.0334 9.29665 6.21748 9.48045 5.70093 10.0189L5.62631 10.0812C4.5542 11.6978 5.70093 43.5693 5.70093 43.5693H24.6316Z" fill="#5C2AFF"/>
<path d="M2.1065 13.0165C2.34613 12.7667 2.1065 12.2671 2.1065 13.0165C1.86687 13.2663 2.1065 45 2.1065 45L2.1065 13.0165Z" fill="#5C2AFF"/>
<path d="M5.70093 10.0189C5.67494 10.0243 5.65008 10.0453 5.62631 10.0812M5.70093 10.0189C5.67586 10.0398 5.65099 10.0606 5.62631 10.0812M5.70093 10.0189C6.21748 9.48045 11.0334 9.29665 17.0927 9.38644M5.70093 10.0189L5.62631 10.0812M2.1065 13.0165C2.1065 12.2671 2.34613 12.7667 2.1065 13.0165ZM2.1065 13.0165C1.86687 13.2663 2.1065 45 2.1065 45M2.1065 13.0165C2.1065 23.6777 2.1065 45 2.1065 45M2.1065 13.0165L5.62631 10.0812M2.1065 13.0165L2.1065 45M2.1065 13.0165C3.48514 11.8668 4.26891 11.2132 5.62631 10.0812M2.1065 45L5.70093 43.5693M5.70093 43.5693H24.6316L44.0415 45C44.0415 45 46.1981 14.2655 44.0415 12.0173C43.2934 11.2375 38.6239 10.5778 32.7835 10.1114M5.70093 43.5693C5.70093 43.5693 4.5542 11.6978 5.62631 10.0812M16.2446 13.7659C16.372 12.3718 16.6517 10.8541 17.0927 9.38644M33.7375 15.0149C33.6703 13.4058 33.3401 11.7182 32.7835 10.1114M32.7835 10.1114C27.8361 9.71633 22.0485 9.45988 17.0927 9.38644M32.7835 10.1114C31.3528 5.98136 28.4269 2.38501 24.6316 2.02533C20.7608 1.65851 18.3111 5.3317 17.0927 9.38644" stroke="#E6E6E6" stroke-width="4" stroke-linecap="round"/>
</svg>
