<svg width="238" height="186" viewBox="0 0 238 186" fill="none" xmlns="http://www.w3.org/2000/svg">
<g clip-path="url(#clip0_14_157)">
<path d="M120.413 186C185.355 186 238 182.01 238 177.089C238 172.168 185.355 168.178 120.413 168.178C55.472 168.178 2.82666 172.168 2.82666 177.089C2.82666 182.01 55.472 186 120.413 186Z" fill="black"/>
<path d="M220.297 160.535L221.399 168.375L213.684 169.087L214.786 159.466L220.297 160.535Z" fill="#A0616A"/>
<path d="M183.927 52.9177C183.927 52.9177 184.662 62.5391 184.662 62.8955C184.662 63.2518 179.519 87.8398 179.519 87.8398C179.519 87.8398 172.172 101.381 179.519 101.025C186.866 100.668 184.662 88.1962 184.662 88.1962L192.377 67.528L189.071 52.9177L183.927 52.9177Z" fill="#A0616A"/>
<path d="M196.051 160.535L194.949 168.375L202.663 169.087L201.561 159.466L196.051 160.535Z" fill="#A0616A"/>
<path d="M187.601 87.1271L185.764 89.6216C185.764 89.6216 184.662 100.312 185.764 103.876C186.866 107.439 189.071 123.831 189.071 124.9C189.071 125.969 189.438 126.682 189.071 127.038C188.703 127.394 187.601 127.395 188.336 128.107C189.071 128.82 189.071 130.958 189.071 130.958V132.74L193.846 159.11C193.846 159.11 190.907 162.317 193.112 162.317C195.316 162.317 203.398 162.317 203.031 158.753L202.296 158.397C202.296 158.397 201.194 134.878 201.561 133.809C201.928 132.74 201.561 130.602 201.561 130.602C201.561 130.602 200.826 129.533 201.561 129.176C202.296 128.82 202.296 125.969 202.296 125.969L205.602 104.232C205.602 104.232 208.541 118.842 210.378 120.268C212.215 121.693 211.847 125.256 211.847 125.256L213.317 156.615C213.317 156.615 211.847 160.179 213.317 160.891C214.786 161.604 221.031 164.098 221.399 160.535C221.766 156.971 223.603 125.969 223.603 124.544C223.603 123.118 223.236 122.406 223.603 121.337C223.97 120.268 223.236 120.268 223.603 120.268C223.97 120.268 222.868 119.198 222.868 118.486V101.025C222.868 101.025 223.236 97.4612 223.603 96.7485C223.97 96.0358 223.236 95.3232 223.603 94.2541C223.97 93.1851 222.868 89.6216 222.868 89.6216L206.337 85.3454L187.601 87.1271Z" fill="black"/>
<path d="M200.459 166.949C200.459 166.949 202.296 165.167 199.724 165.167C198.073 165.2 196.447 165.564 194.948 166.236L193.112 172.651C193.112 172.651 185.581 178.53 194.03 177.818C202.479 177.105 201.194 177.64 201.194 177.64C201.194 177.64 203.765 176.927 204.133 176.214C204.5 175.501 203.398 165.167 203.398 165.167C203.398 165.167 202.296 168.018 200.459 166.949Z" fill="black"/>
<path d="M216.256 166.949C216.256 166.949 214.419 165.167 216.99 165.167C218.641 165.2 220.267 165.564 221.766 166.236L223.603 172.651C223.603 172.651 231.134 178.53 222.684 177.818C214.235 177.105 214.419 177.64 214.419 177.64C214.419 177.64 211.847 176.927 211.48 176.214C211.112 175.501 213.317 165.167 213.317 165.167C213.317 165.167 214.419 168.018 216.256 166.949Z" fill="black"/>
<path d="M192.377 24.7662C197.652 24.7662 201.928 20.6181 201.928 15.5011C201.928 10.3842 197.652 6.23608 192.377 6.23608C187.102 6.23608 182.825 10.3842 182.825 15.5011C182.825 20.6181 187.102 24.7662 192.377 24.7662Z" fill="#A0616A"/>
<path d="M189.071 22.2718C189.071 22.2718 190.54 29.3987 190.54 30.4678C190.54 31.5368 196.785 34.7439 196.785 34.7439L203.765 26.1916C203.765 26.1916 199.357 20.1337 199.357 18.7083L189.071 22.2718Z" fill="#A0616A"/>
<path d="M194.581 31.5368C194.581 31.5368 191.379 30.7101 190.409 29.3417C190.409 29.3417 180.254 39.0201 180.254 40.8019L188.336 54.6994C188.336 54.6994 188.336 59.6883 189.071 60.0447C189.805 60.401 189.071 60.0447 189.071 61.4701C189.071 62.8954 186.866 72.1605 187.601 73.5859C188.336 75.0113 189.071 73.9422 188.336 76.0803C187.601 78.2184 185.764 89.6216 185.764 89.6216C185.764 89.6216 192.377 87.4835 201.928 91.047C211.48 94.6105 222.868 89.6216 222.868 89.6216C222.868 89.6216 219.929 83.2073 220.664 81.0692C221.399 78.9311 218.827 75.0113 218.827 75.0113L216.99 42.2273C216.99 42.2273 219.562 27.617 217.725 26.9043L214.051 25.4789L202.287 24.0763C202.287 24.0763 199.357 31.1805 194.581 31.5368Z" fill="#D0CDE1"/>
<path d="M183.928 38.3074L180.254 40.8019C180.254 40.8019 178.417 46.1471 180.254 48.6415C182.091 51.136 182.825 54.6995 182.825 54.6995L190.173 53.9868L183.928 38.3074Z" fill="#D0CDE1"/>
<path d="M185.084 5.70957L183.428 5.06616C183.428 5.06616 186.892 1.3666 191.712 1.6883L190.356 0.240627C190.356 0.240627 193.67 -1.04617 196.682 2.33169C198.266 4.10736 200.098 6.19456 201.24 8.54577H203.014L202.274 10.1275L204.866 11.7092L202.205 11.4251C202.457 12.7906 202.371 14.1946 201.954 15.5215L202.025 16.7717C202.025 16.7717 198.941 12.1436 198.941 11.5002V13.1087C198.941 13.1087 197.285 11.661 197.285 10.6959L196.381 11.8219L195.929 10.0525L190.356 11.8219L191.26 10.3743L187.795 10.8568L189.151 9.08744C189.151 9.08744 185.235 11.1785 185.084 12.9479C184.934 14.7172 182.976 16.9691 182.976 16.9691L182.072 15.3606C182.072 15.3606 180.716 8.12233 185.084 5.70957Z" fill="black"/>
<path d="M187.3 77.548H41.3162V177.022H187.3V77.548Z" fill="#F2F2F2"/>
<path d="M90.2599 115.502H53.6051V177.57H90.2599V115.502Z" fill="black"/>
<path d="M70.2589 119.225H60.3851V128.154H70.2589V119.225Z" fill="#F2F2F2"/>
<path d="M83.4799 119.225H73.6061V128.154H83.4799V119.225Z" fill="#F2F2F2"/>
<path d="M70.2589 131.4H60.3851V140.653H70.2589V131.4Z" fill="#F2F2F2"/>
<path d="M83.4799 131.4H73.6061V140.653H83.4799V131.4Z" fill="#F2F2F2"/>
<path d="M85.5986 152.975C86.8858 152.975 87.9293 151.963 87.9293 150.714C87.9293 149.466 86.8858 148.454 85.5986 148.454C84.3114 148.454 83.2679 149.466 83.2679 150.714C83.2679 151.963 84.3114 152.975 85.5986 152.975Z" fill="#A2A4FF"/>
<path d="M175.011 109.61H102.549V168.595H175.011V109.61Z" fill="black"/>
<path d="M202.555 96.2754H26.061L37.8287 72.4098L40.4623 67.0663L43.9076 60.0784L46.5412 54.7348L49.5942 48.5446H188.649L190.453 54.7348L192.01 60.0784L194.046 67.0663L195.603 72.4098L202.555 96.2754Z" fill="black"/>
<path d="M107.634 134.067H105.091V149.276H107.634V134.067Z" fill="#A2A4FF"/>
<path d="M107.634 136.328H105.091V138.178H107.634V136.328Z" fill="#F2F2F2"/>
<path d="M107.634 145.165H105.091V147.015H107.634V145.165Z" fill="#F2F2F2"/>
<path d="M115.05 134.067H108.905V149.276H115.05V134.067Z" fill="#A2A4FF"/>
<path d="M115.05 136.328H108.905V138.178H115.05V136.328Z" fill="#F2F2F2"/>
<path d="M115.05 145.165H108.905V147.015H115.05V145.165Z" fill="#F2F2F2"/>
<path d="M119.075 134.067H116.533V149.276H119.075V134.067Z" fill="#A2A4FF"/>
<path d="M119.075 136.328H116.533V138.178H119.075V136.328Z" fill="#F2F2F2"/>
<path d="M119.075 145.165H116.533V147.015H119.075V145.165Z" fill="#F2F2F2"/>
<path d="M122.889 134.067H120.346V149.276H122.889V134.067Z" fill="#A2A4FF"/>
<path d="M122.889 136.328H120.346V138.178H122.889V136.328Z" fill="#F2F2F2"/>
<path d="M122.889 145.165H120.346V147.015H122.889V145.165Z" fill="#F2F2F2"/>
<path d="M125.339 134.121L122.96 134.991L128.49 149.222L130.869 148.352L125.339 134.121Z" fill="#A2A4FF"/>
<path d="M126.161 136.236L123.782 137.106L124.455 138.837L126.834 137.967L126.161 136.236Z" fill="#F2F2F2"/>
<path d="M129.375 144.506L126.996 145.376L127.668 147.107L130.047 146.237L129.375 144.506Z" fill="#F2F2F2"/>
<path d="M172.68 134.067H166.536V149.276H172.68V134.067Z" fill="#A2A4FF"/>
<path d="M172.68 136.328H166.536V138.178H172.68V136.328Z" fill="#F2F2F2"/>
<path d="M172.68 145.165H166.536V147.015H172.68V145.165Z" fill="#F2F2F2"/>
<path d="M165.053 134.067H162.51V149.276H165.053V134.067Z" fill="#A2A4FF"/>
<path d="M165.053 136.328H162.51V138.178H165.053V136.328Z" fill="#F2F2F2"/>
<path d="M165.053 145.165H162.51V147.015H165.053V145.165Z" fill="#F2F2F2"/>
<path d="M161.239 134.067H158.696V149.276H161.239V134.067Z" fill="#A2A4FF"/>
<path d="M161.239 136.328H158.696V138.178H161.239V136.328Z" fill="#F2F2F2"/>
<path d="M161.239 145.165H158.696V147.015H161.239V145.165Z" fill="#F2F2F2"/>
<path d="M156.246 134.121L150.716 148.352L153.095 149.222L158.625 134.991L156.246 134.121Z" fill="#A2A4FF"/>
<path d="M155.424 136.236L154.752 137.967L157.131 138.837L157.803 137.106L155.424 136.236Z" fill="#F2F2F2"/>
<path d="M152.211 144.506L151.538 146.237L153.917 147.107L154.59 145.376L152.211 144.506Z" fill="#F2F2F2"/>
<path d="M175.011 149.276H102.549V150.714H175.011V149.276Z" fill="#F2F2F2"/>
<path d="M147.467 134.067H134.119V149.276H147.467V134.067Z" fill="#A2A4FF"/>
<path d="M144.183 137.355H137.403V140.233H144.183V137.355Z" fill="#F2F2F2"/>
<path d="M139.415 109.61H138.144V122.763H139.415V109.61Z" fill="#F2F2F2"/>
<path d="M138.78 124.819C139.95 124.819 140.899 123.898 140.899 122.763C140.899 121.628 139.95 120.708 138.78 120.708C137.61 120.708 136.661 121.628 136.661 122.763C136.661 123.898 137.61 124.819 138.78 124.819Z" fill="#F2F2F2"/>
<path d="M192.01 60.0784H43.9076L46.5411 54.7348H190.453L192.01 60.0784Z" fill="#A2A4FF"/>
<path d="M195.603 72.4098H37.8287L40.4623 67.0663H194.046L195.603 72.4098Z" fill="#A2A4FF"/>
<path d="M211.112 41.5146C211.112 41.5146 208.985 46.8208 209.429 52.0709C209.511 53.0109 209.837 53.9154 210.378 54.6994L184.315 66.7016C184.315 66.7016 172.539 67.8843 175.478 72.8732C178.417 77.8621 189.071 70.3788 189.071 70.3788C189.071 70.3788 216.99 66.4589 219.194 62.5391C221.399 58.6193 222.868 42.2272 222.868 42.2272L211.112 41.5146Z" fill="#A0616A"/>
<path d="M212.215 26.9043H217.725C217.725 26.9043 221.766 27.617 222.868 34.744C223.97 41.8709 225.072 43.6527 223.97 43.6527C222.868 43.6527 209.643 43.2963 209.643 42.94C209.643 42.5836 212.215 26.9043 212.215 26.9043Z" fill="#D0CDE1"/>
<path d="M28.266 133.357C43.8769 133.357 56.5321 121.081 56.5321 105.938C56.5321 90.7955 43.8769 78.5198 28.266 78.5198C12.6551 78.5198 0 90.7955 0 105.938C0 121.081 12.6551 133.357 28.266 133.357Z" fill="#A2A4FF"/>
<path opacity="0.1" d="M28.2661 129.518C41.6914 129.518 52.5749 118.961 52.5749 105.938C52.5749 92.9155 41.6914 82.3584 28.2661 82.3584C14.8407 82.3584 3.95728 92.9155 3.95728 105.938C3.95728 118.961 14.8407 129.518 28.2661 129.518Z" fill="black"/>
<path d="M27.1012 119.853V116.421C25.3127 116.387 23.4625 115.775 22.3833 114.925L23.1233 112.649C24.4058 113.581 25.9612 114.093 27.5637 114.11C29.7532 114.11 31.2333 112.717 31.2333 110.78C31.2333 108.911 30.0306 107.756 27.7488 106.736C24.6035 105.377 22.6608 103.814 22.6608 100.858C22.6608 98.0372 24.4801 95.8965 27.3171 95.3868V91.9549H29.2289V95.251C30.6545 95.2698 32.0451 95.6824 33.2377 96.4402L32.4667 98.6829C31.3229 97.9234 29.9675 97.5204 28.5814 97.5276C26.207 97.5276 25.3127 99.0906 25.3127 100.45C25.3127 102.217 26.4537 103.1 29.1365 104.324C32.3125 105.751 33.9161 107.518 33.9161 110.542C33.9161 113.226 32.2201 115.741 29.0439 116.318V119.853H27.1012Z" fill="#F2F2F2"/>
</g>
<defs>
<clipPath id="clip0_14_157">
<rect width="238" height="186" fill="white"/>
</clipPath>
</defs>
</svg>
