<svg width="87" height="87" viewBox="0 0 87 87" fill="none" xmlns="http://www.w3.org/2000/svg">
<path d="M38.8694 5.48504L42.1563 7.05429C42.972 7.44373 43.9198 7.44461 44.7363 7.05668L48.0812 5.46737C50.6307 4.25583 52.9124 3.33995 53.1516 3.4317C53.3909 3.52346 54.9627 5.42047 56.6439 7.64713L58.8405 10.556C59.385 11.277 60.2254 11.7143 61.1283 11.7463L64.8681 11.8789C68.4847 12.007 70.1146 12.1902 70.2998 12.4896C70.4449 12.7247 70.9041 15.1138 71.3193 17.7986L71.8546 21.257C71.9938 22.1564 72.5338 22.944 73.3225 23.3981L76.2753 25.0981C78.5855 26.4283 80.661 27.7394 80.8873 28.0123C81.218 28.4106 80.9791 29.4753 79.6775 33.4117L78.501 36.9697C78.2193 37.8216 78.3337 38.7549 78.8129 39.5136L80.8006 42.6605C82.3102 45.0507 83.5486 47.1509 83.553 47.328C83.5571 47.505 81.8586 49.2556 79.7784 51.2182L77.0455 53.7963C76.3822 54.4221 76.0395 55.3157 76.1143 56.2246L76.4238 59.9855C76.6773 63.0706 76.7266 65.305 76.5451 65.4811C76.3766 65.6439 74.1186 66.3878 71.5273 67.1341C68.936 67.8807 66.6975 68.6192 66.5527 68.7755C66.4079 68.9318 65.4954 70.9716 64.5245 73.308C63.5536 75.6444 62.5694 77.7532 62.3369 77.9938C61.9933 78.3503 61.0088 78.2398 57.0435 77.399C54.3642 76.8312 52.0601 76.3666 51.9231 76.3666C51.7861 76.3666 49.9095 77.8194 47.7529 79.5951C45.5966 81.3708 43.6574 82.8236 43.4437 82.8236C43.2299 82.8236 41.2907 81.3708 39.1344 79.5951C36.9778 77.8194 35.1012 76.3666 34.9642 76.3666C34.8273 76.3666 32.5231 76.8312 29.8438 77.399C25.8785 78.2398 24.894 78.3503 24.5504 77.9938C24.3179 77.7532 23.3337 75.6444 22.3628 73.308C21.3919 70.9716 20.4794 68.9318 20.3346 68.7755C20.1898 68.6192 17.9513 67.8807 15.36 67.1341C12.7687 66.3878 10.5108 65.6439 10.3422 65.4811C10.1607 65.305 10.21 63.0706 10.4635 59.9855L10.773 56.2246C10.8478 55.3157 10.5051 54.4221 9.8418 53.7963L7.10892 51.2182C5.02873 49.2556 3.33019 47.5152 3.33427 47.3504C3.33869 47.1859 4.57708 45.085 6.08633 42.6816L8.079 39.5085C8.55477 38.7509 8.6676 37.8205 8.38672 36.9711L7.20917 33.4103C5.90791 29.475 5.66934 28.4106 6.00001 28.0123C6.22634 27.7394 8.30177 26.4283 10.612 25.0981L13.5648 23.3981C14.3535 22.944 14.8935 22.1564 15.0327 21.257L15.568 17.7986C15.9833 15.1138 16.4424 12.7247 16.5875 12.4896C16.7727 12.1902 18.4019 12.007 22.0172 11.8789L25.7491 11.7465C26.6555 11.7144 27.4988 11.2738 28.0429 10.5482L29.7568 8.26258C32.7046 4.33127 33.5865 3.30018 34.0001 3.30018C34.1612 3.30018 36.3525 4.28335 38.8694 5.48504Z" fill="#F2B705"/>
<path fill-rule="evenodd" clip-rule="evenodd" d="M32.2492 0.313297C31.44 0.740821 30.2893 2.06213 27.0883 6.23881L26.3605 7.18844C25.8249 7.8873 25.0093 8.31558 24.13 8.35976L20.8491 8.5246C17.712 8.68195 15.85 8.93038 15.1697 9.28211C13.7797 10.0009 13.0545 11.8721 12.3296 16.6071L11.9421 19.1392C11.8038 20.0425 11.2615 20.8335 10.4688 21.2879L8.29735 22.533C1.4879 26.4371 1.43183 26.5723 3.74141 33.5697L4.71483 36.5191C4.99676 37.3734 4.88048 38.309 4.39804 39.0683L2.9166 41.3997C0.0173976 45.9628 -0.194325 46.4624 0.096921 48.0484C0.29403 49.1234 0.950269 49.9397 3.87666 52.7532L6.38784 55.1673C7.03944 55.7937 7.37389 56.6805 7.29822 57.5812L7.0243 60.8415C6.43773 67.8205 6.66576 68.141 13.6339 70.1315L16.5087 70.9526C17.3808 71.2016 18.0934 71.8319 18.4472 72.667L19.6624 75.5357C22.3693 81.9251 22.9035 82.2309 29.1396 80.9606C31.4509 80.4899 33.5899 80.1049 33.893 80.1049C34.1958 80.1049 36.0157 81.3939 37.9368 82.9694C43.1021 87.2052 43.7852 87.2052 48.9505 82.9694C50.8716 81.3939 52.6915 80.1049 52.9943 80.1049C53.2974 80.1049 55.4364 80.4899 57.7477 80.9606C63.9862 82.2313 64.5728 81.8948 67.2484 75.5116L68.4364 72.6772C68.7885 71.8371 69.5033 71.2025 70.3792 70.9523L73.2503 70.1322C80.2219 68.1407 80.4496 67.8209 79.863 60.8415L79.5891 57.5812C79.5134 56.6805 79.8479 55.7937 80.4995 55.1673L83.0107 52.7532C85.937 49.9397 86.5933 49.1234 86.7904 48.0484C87.0816 46.4624 86.8699 45.9628 83.9707 41.3997L82.4893 39.0683C82.0068 38.309 81.8905 37.3734 82.1725 36.5191L83.1459 33.5697C85.4548 26.574 85.398 26.4361 78.5998 22.5384L76.4222 21.2898C75.6384 20.8405 75.0989 20.0618 74.9535 19.1702L74.4333 15.9808C73.6296 11.0537 73.076 9.80072 71.4046 9.12647C70.8857 8.91746 68.3991 8.62961 65.8784 8.48688L62.6747 8.30586C61.7993 8.2564 60.9893 7.82642 60.4579 7.12902L58.8865 5.06703C55.3219 0.389762 54.946 0.0696294 53.0364 0.0825434C51.796 0.0910395 50.5202 0.530797 47.4368 2.0132L44.7361 3.31138C43.9188 3.70426 42.9676 3.70633 42.1485 3.31701L39.4763 2.04684C35.212 0.0196722 33.5562 -0.377265 32.2492 0.313297ZM44.7363 7.05668C43.9198 7.44461 42.972 7.44373 42.1563 7.05429L38.8694 5.48504C36.3525 4.28335 34.1612 3.30018 34.0001 3.30018C33.5865 3.30018 32.7046 4.33127 29.7568 8.26258L28.0429 10.5482C27.4988 11.2738 26.6555 11.7144 25.7491 11.7465L22.0172 11.8789C18.4019 12.007 16.7727 12.1902 16.5875 12.4896C16.4424 12.7247 15.9833 15.1138 15.568 17.7986L15.0327 21.257C14.8935 22.1564 14.3535 22.944 13.5648 23.3981L10.612 25.0981C8.30177 26.4283 6.22634 27.7394 6.00001 28.0123C5.66934 28.4106 5.90791 29.475 7.20917 33.4103L8.38672 36.9711C8.6676 37.8205 8.55477 38.7509 8.079 39.5085L6.08633 42.6816C4.57708 45.085 3.33869 47.1859 3.33427 47.3504C3.33019 47.5152 5.02873 49.2556 7.10892 51.2182L9.8418 53.7963C10.5051 54.4221 10.8478 55.3157 10.773 56.2246L10.4635 59.9855C10.21 63.0706 10.1607 65.305 10.3422 65.4811C10.5108 65.6439 12.7687 66.3878 15.36 67.1341C17.9513 67.8807 20.1898 68.6192 20.3346 68.7755C20.4794 68.9318 21.3919 70.9716 22.3628 73.308C23.3337 75.6444 24.3179 77.7532 24.5504 77.9938C24.894 78.3503 25.8785 78.2398 29.8438 77.399C32.5231 76.8312 34.8273 76.3666 34.9642 76.3666C35.1012 76.3666 36.9778 77.8194 39.1344 79.5951C41.2907 81.3708 43.2299 82.8236 43.4437 82.8236C43.6574 82.8236 45.5966 81.3708 47.7529 79.5951C49.9095 77.8194 51.7861 76.3666 51.9231 76.3666C52.0601 76.3666 54.3642 76.8312 57.0435 77.399C61.0088 78.2398 61.9933 78.3503 62.3369 77.9938C62.5694 77.7532 63.5536 75.6444 64.5245 73.308C65.4954 70.9716 66.4079 68.9318 66.5527 68.7755C66.6975 68.6192 68.936 67.8807 71.5273 67.1341C74.1186 66.3878 76.3766 65.6439 76.5451 65.4811C76.7266 65.305 76.6773 63.0706 76.4238 59.9855L76.1143 56.2246C76.0395 55.3157 76.3822 54.4221 77.0455 53.7963L79.7784 51.2182C81.8586 49.2556 83.5571 47.505 83.553 47.328C83.5486 47.1509 82.3102 45.0507 80.8006 42.6605L78.8129 39.5136C78.3337 38.7549 78.2193 37.8216 78.501 36.9697L79.6775 33.4117C80.9791 29.4753 81.218 28.4106 80.8873 28.0123C80.661 27.7394 78.5855 26.4283 76.2753 25.0981L73.3225 23.3981C72.5338 22.944 71.9938 22.1564 71.8546 21.257L71.3193 17.7986C70.9041 15.1138 70.4449 12.7247 70.2998 12.4896C70.1146 12.1902 68.4847 12.007 64.8681 11.8789L61.1283 11.7463C60.2254 11.7143 59.385 11.277 58.8405 10.556L56.6439 7.64713C54.9627 5.42047 53.3909 3.52346 53.1516 3.4317C52.9124 3.33995 50.6307 4.25583 48.0812 5.46737L44.7363 7.05668Z" fill="#F2B705"/>
</svg>
